# xmcd CD database file
#
# Track frame offsets:
#	150
#	21235
#	40987
#	62285
#	83538
#	99979
#	116146
#	132422
#	150368
#	167870
#	191643
#	209197
#
# Disc length: 3113 seconds
#
# Revision: 0
# Processed by: cddbd v1.5.1PL0 Copyright (c) Steve Scherf et al.
# Submitted via: CDex 1.51
#
DISCID=9e0c270c
DTITLE=Salsa.Compilations - Let's.Salsa.Vol.2
DYEAR=2004
DGENRE=Salsa
TTITLE0=La Guarapera - The Latin Brothers - Salsa
TTITLE1=Fruko's Boogaloo - Fruko Y Sus tesos
TTITLE2=Noche De Rumba - Sonora Carruseles
TTITLE3=Bailando Pegaito - Los Nemus
TTITLE4=A la Caridad Del Cobre - Yolanda Rayo
TTITLE5=Consuelate - Los Del Caney
TTITLE6=Vampiro Enamorato - Grupo Raza
TTITLE7=Treinta por tres - Los Nemus
TTITLE8=Que Se Mueva Paqui - La Sonora Malecon
TTITLE9=La Vuelta - Joe Arroyo
TTITLE10=Negrita Que Vende - Freddy Cruz Y La Fuerza Latina
TTITLE11=Levantate Negro - Son De Oriente
EXTD=YEAR: 2004
EXTT0=
EXTT1=
EXTT2=
EXTT3=
EXTT4=
EXTT5=
EXTT6=
EXTT7=
EXTT8=
EXTT9=
EXTT10=
EXTT11=
PLAYORDER=
